<?xml version="1.0" encoding="UTF-8" standalone="no"?>
<!DOCTYPE svg PUBLIC "-//W3C//DTD SVG 1.1//EN" "http://www.w3.org/Graphics/SVG/1.1/DTD/svg11.dtd">
<svg width="100%" height="100%" viewBox="0 0 1090 1090" version="1.1" xmlns="http://www.w3.org/2000/svg" xmlns:xlink="http://www.w3.org/1999/xlink" xml:space="preserve" xmlns:serif="http://www.serif.com/" style="fill-rule:evenodd;clip-rule:evenodd;stroke-linejoin:round;stroke-miterlimit:2;">
    <g transform="matrix(1,0,0,1,-5868.36,-3794.92)">
        <g transform="matrix(1.41291,0,0,1,3731.02,332.548)">
            <g transform="matrix(0.665057,0,0,0.939665,453.813,2436.07)">
                <path d="M2341.6,1261.97L2581.63,1261.97L2581.63,1502.01L2751.36,1671.74L2581.63,1841.47L2581.63,2081.57L2341.53,2081.57L2171.76,2251.34L2001.98,2081.57L1761.95,2081.57L1761.95,1841.53L1592.22,1671.8L1761.95,1502.07L1761.95,1261.97L2002.05,1261.97L2171.82,1092.2L2341.6,1261.97Z" style="fill:white;"/>
            </g>
        </g>
        <g transform="matrix(1.41291,0,0,1,3731.02,332.548)">
            <g transform="matrix(0.548009,0,0,0.774287,708.017,2712.55)">
                <path d="M2341.6,1261.97L2581.63,1261.97L2581.63,1502.01L2751.36,1671.74L2581.63,1841.47L2581.63,2081.57L2341.53,2081.57L2171.76,2251.34L2001.98,2081.57L1761.95,2081.57L1761.95,1841.53L1592.22,1671.8L1761.95,1502.07L1761.95,1261.97L2002.05,1261.97L2171.82,1092.2L2341.6,1261.97Z"/>
            </g>
        </g>
        <g transform="matrix(1.41291,0,0,1,3731.02,332.548)">
            <g transform="matrix(0.70776,0,0,1,-1737.12,-332.548)">
                <path d="M4767.11,4300.05L4727.63,4339.53L4767.11,4379.01L4806.6,4339.53L4767.11,4300.05ZM4767.11,4324.21L4751.79,4339.53L4767.11,4354.85L4782.43,4339.53L4767.11,4324.21Z" style="fill:white;"/>
            </g>
        </g>
        <g transform="matrix(1.41291,0,0,1,3731.02,332.548)">
            <g transform="matrix(0.70776,0,0,1,-1211.21,-332.548)">
                <path d="M4767.11,4300.05L4727.63,4339.53L4767.11,4379.01L4806.6,4339.53L4767.11,4300.05ZM4767.11,4324.21L4751.79,4339.53L4767.11,4354.85L4782.43,4339.53L4767.11,4324.21Z" style="fill:white;"/>
            </g>
        </g>
        <g transform="matrix(1.41291,0,0,1,3731.02,332.548)">
            <g transform="matrix(0.70776,0,0,1,-1477.17,34.7273)">
                <path d="M4767.11,4300.05L4727.63,4339.53L4767.11,4379.01L4806.6,4339.53L4767.11,4300.05ZM4767.11,4324.21L4751.79,4339.53L4767.11,4354.85L4782.43,4339.53L4767.11,4324.21Z" style="fill:white;"/>
            </g>
        </g>
        <g transform="matrix(1.41291,0,0,1,3731.02,332.548)">
            <g transform="matrix(0.70776,0,0,1,-1477.17,-695.57)">
                <path d="M4767.11,4300.05L4727.63,4339.53L4767.11,4379.01L4806.6,4339.53L4767.11,4300.05ZM4767.11,4324.21L4751.79,4339.53L4767.11,4354.85L4782.43,4339.53L4767.11,4324.21Z" style="fill:white;"/>
            </g>
        </g>
        <g transform="matrix(1.41291,0,0,1,3731.02,332.548)">
            <g transform="matrix(0.70776,0,0,1,-2640.66,-332.548)">
                <path d="M6146.53,4561.75L6211.75,4432.7C6243.41,4369.61 6287.63,4338.06 6344.41,4338.06L6457.44,4338.06L6501.63,4426.36L6342.35,4426.36C6324.11,4426.36 6311.65,4433.1 6304.97,4446.6L6246.73,4561.75L6146.53,4561.75ZM6287.94,4281.93L6371.13,4117.31L6455.88,4117.31L6679.41,4561.75L6581.85,4561.75L6414.82,4229.43L6388.27,4281.93L6287.94,4281.93Z" style="fill:white;fill-rule:nonzero;"/>
            </g>
        </g>
    </g>
</svg>
