<?xml version="1.0" encoding="UTF-8" standalone="no"?>
<!DOCTYPE svg PUBLIC "-//W3C//DTD SVG 1.1//EN" "http://www.w3.org/Graphics/SVG/1.1/DTD/svg11.dtd">
<svg width="100%" height="100%" viewBox="0 0 2462 330" version="1.1" xmlns="http://www.w3.org/2000/svg" xmlns:xlink="http://www.w3.org/1999/xlink" xml:space="preserve" xmlns:serif="http://www.serif.com/" style="fill-rule:evenodd;clip-rule:evenodd;stroke-linejoin:round;stroke-miterlimit:2;">
    <g transform="matrix(1,0,0,1,-907.154,-3459.61)">
        <g transform="matrix(4.16667,0,0,4.16667,0,0)">
            <g transform="matrix(1,0,0,1,0,185.946)">
                <path d="M295.666,715.035C295.666,717.345 294.858,719.308 293.241,720.925C291.625,722.542 289.661,723.35 287.352,723.35C285.042,723.35 283.079,722.542 281.462,720.925C279.846,719.308 279.037,717.345 279.037,715.035L279.037,693.903C274.649,693.903 270.376,693.325 266.219,692.17C262.062,691.016 257.702,689.197 253.141,686.714C248.579,684.231 243.7,681.026 238.504,677.1C233.307,673.174 227.475,668.381 221.008,662.723C220.085,661.914 219.305,660.933 218.67,659.778C218.035,658.623 217.717,657.411 217.717,656.14C217.717,653.831 218.526,651.868 220.142,650.251C221.759,648.634 223.722,647.826 226.032,647.826C227.187,647.826 228.226,648.057 229.15,648.519C230.074,648.981 230.997,649.558 231.921,650.251C239.312,656.718 245.519,661.77 250.542,665.408C255.566,669.045 260.07,671.73 264.054,673.462C268.038,675.195 271.82,676.263 275.4,676.667C278.98,677.071 283.021,677.273 287.525,677.273C292.029,677.273 296.013,677.1 299.477,676.754C302.942,676.407 306.637,675.368 310.563,673.636C314.49,671.904 318.965,669.219 323.988,665.581C329.011,661.943 335.276,656.833 342.782,650.251C344.746,648.634 346.709,647.826 348.672,647.826C350.982,647.826 352.945,648.634 354.561,650.251C356.178,651.868 356.987,653.831 356.987,656.14C356.987,657.411 356.669,658.623 356.034,659.778C355.399,660.933 354.619,661.914 353.695,662.723C347.344,668.266 341.512,673.029 336.2,677.014C330.888,680.998 325.893,684.231 321.216,686.714C316.54,689.197 312.094,691.016 307.878,692.17C303.663,693.325 299.593,693.903 295.666,693.903L295.666,715.035Z" style="fill:white;fill-rule:nonzero;"/>
            </g>
            <g transform="matrix(1,0,0,1,0,185.946)">
                <path d="M479.8,706.721C483.726,706.721 486.96,705.999 489.5,704.556C492.041,703.112 494.033,701.351 495.476,699.272C496.92,697.194 497.901,694.913 498.421,692.43C498.941,689.947 499.201,687.667 499.201,685.588C499.201,683.509 498.941,681.229 498.421,678.746C497.901,676.263 496.92,673.982 495.476,671.904C494.033,669.825 492.041,668.064 489.5,666.62C486.96,665.177 483.726,664.455 479.8,664.455L409.819,664.455C405.777,664.455 402.515,665.177 400.032,666.62C397.549,668.064 395.586,669.825 394.142,671.904C392.699,673.982 391.717,676.263 391.198,678.746C390.678,681.229 390.418,683.509 390.418,685.588C390.418,687.667 390.678,689.947 391.198,692.43C391.717,694.913 392.699,697.194 394.142,699.272C395.586,701.351 397.549,703.112 400.032,704.556C402.515,705.999 405.777,706.721 409.819,706.721L479.8,706.721ZM515.31,685.588C515.31,689.976 514.588,694.393 513.145,698.839C511.701,703.285 509.594,707.327 506.822,710.965C504.051,714.602 500.702,717.576 496.775,719.886C492.849,722.195 488.403,723.35 483.437,723.35L404.449,723.35C399.714,723.119 395.499,721.82 391.804,719.453C388.108,717.085 384.962,714.112 382.363,710.532C379.765,706.952 377.773,702.968 376.387,698.579C375.001,694.191 374.309,689.861 374.309,685.588C374.309,681.2 375.03,676.783 376.474,672.337C377.917,667.891 380.025,663.849 382.796,660.211C385.568,656.573 388.917,653.6 392.843,651.29C396.769,648.981 401.215,647.826 406.181,647.826L485.17,647.826C489.904,648.057 494.119,649.356 497.815,651.723C501.51,654.091 504.657,657.064 507.255,660.644C509.854,664.224 511.846,668.208 513.231,672.596C514.617,676.985 515.31,681.315 515.31,685.588Z" style="fill:white;fill-rule:nonzero;"/>
            </g>
            <g transform="matrix(1,0,0,1,0,185.946)">
                <path d="M650.595,656.14C650.595,653.831 651.404,651.868 653.02,650.251C654.637,648.634 656.6,647.826 658.91,647.826C661.22,647.826 663.183,648.634 664.799,650.251C666.416,651.868 667.224,653.831 667.224,656.14L667.224,706.548C667.224,711.282 665.637,715.266 662.461,718.5C659.285,721.733 655.33,723.35 650.595,723.35C648.979,723.35 647.391,723.119 645.832,722.657C644.273,722.195 642.858,721.56 641.588,720.752L562.253,672.25C560.059,670.98 558.24,669.969 556.796,669.219C555.353,668.468 554.169,668.093 553.245,668.093C551.513,668.093 550.416,669.19 549.954,671.384C549.492,673.578 549.261,676.754 549.261,680.911L549.261,715.035C549.261,717.345 548.453,719.308 546.836,720.925C545.219,722.542 543.256,723.35 540.947,723.35C538.637,723.35 536.674,722.542 535.057,720.925C533.44,719.308 532.632,717.345 532.632,715.035L532.632,664.628C532.632,659.894 534.22,655.909 537.396,652.676C540.571,649.443 544.527,647.826 549.261,647.826C550.878,647.826 552.466,648.057 554.025,648.519C555.584,648.981 556.998,649.616 558.269,650.424L637.604,698.926C639.798,700.196 641.617,701.207 643.06,701.957C644.504,702.708 645.687,703.083 646.611,703.083C648.343,703.083 649.441,701.986 649.902,699.792C650.364,697.598 650.595,694.422 650.595,690.265L650.595,656.14Z" style="fill:white;fill-rule:nonzero;"/>
            </g>
            <g transform="matrix(1,0,0,1,0,185.946)">
                <path d="M699.27,720.232C697.538,722.311 695.402,723.35 692.861,723.35C690.552,723.35 688.588,722.542 686.972,720.925C685.355,719.308 684.547,717.345 684.547,715.035C684.547,712.957 685.124,711.282 686.279,710.012L728.371,653.369C730.334,650.713 732.933,648.548 736.166,646.873C739.4,645.199 742.864,644.361 746.559,644.361C750.024,644.361 753.315,645.112 756.433,646.613C759.551,648.115 762.092,650.193 764.055,652.849L806.147,709.146C806.84,709.954 807.418,710.849 807.88,711.831C808.341,712.812 808.572,713.881 808.572,715.035C808.572,717.345 807.764,719.308 806.147,720.925C804.531,722.542 802.567,723.35 800.258,723.35C797.486,723.35 795.292,722.253 793.675,720.059L753.315,666.187C752.507,665.263 751.496,664.253 750.284,663.156C749.071,662.059 747.83,661.51 746.559,661.51C745.289,661.51 744.048,662.059 742.835,663.156C741.623,664.253 740.67,665.263 739.977,666.187L699.27,720.232Z" style="fill:white;fill-rule:nonzero;"/>
            </g>
            <g transform="matrix(1,0,0,1,0,185.946)">
                <path d="M278.731,677.975C278.731,677.447 278.322,677.009 277.796,676.972C276.91,676.909 276.053,676.836 275.226,676.754C271.762,676.407 268.067,675.368 264.14,673.636C260.213,671.904 255.739,669.219 250.716,665.581C245.692,661.943 239.427,656.833 231.921,650.251C229.958,648.634 227.995,647.826 226.032,647.826C223.722,647.826 221.759,648.634 220.142,650.251C218.526,651.868 217.717,653.831 217.717,656.14C217.717,657.411 218.035,658.623 218.67,659.778C219.305,660.933 220.085,661.914 221.008,662.723C227.36,668.266 233.192,673.029 238.504,677.014C243.816,680.998 248.81,684.231 253.487,686.714C258.164,689.197 262.61,691.016 266.825,692.17C270.563,693.194 274.187,693.764 277.698,693.88C277.969,693.888 278.231,693.785 278.426,693.596C278.62,693.407 278.73,693.147 278.73,692.876C278.731,689.836 278.731,680.902 278.731,677.975Z" style="fill:rgb(209,209,209);fill-rule:nonzero;"/>
            </g>
            <g transform="matrix(1,0,0,1,0,185.946)">
                <path d="M241.875,677.616C242.397,677.982 243.046,678.117 243.67,677.99C244.294,677.864 244.839,677.486 245.177,676.946C246.532,674.784 248.612,671.462 249.891,669.42C250.543,668.378 250.272,667.009 249.272,666.295C245.819,663.654 238.155,657.665 233.325,653.429C231.711,652.1 230.097,651.436 228.483,651.436C226.585,651.436 224.971,652.1 223.642,653.429C222.313,654.758 221.648,656.372 221.648,658.271C221.648,659.315 221.91,660.312 222.432,661.261C222.954,662.21 223.595,663.017 224.354,663.682C228.594,667.382 237.707,674.482 241.875,677.616Z" style="fill:rgb(187,187,187);fill-rule:nonzero;"/>
            </g>
            <g transform="matrix(1,0,0,1,0,185.946)">
                <path d="M802.234,716.916C803.508,715.954 804.347,714.526 804.568,712.946C804.789,711.365 804.372,709.762 803.411,708.488C799.428,703.213 793.203,694.967 790.238,691.04C789.31,689.811 787.563,689.567 786.334,690.495C784.785,691.664 782.727,693.217 781.178,694.387C779.95,695.314 779.706,697.062 780.633,698.291C783.598,702.218 789.823,710.464 793.806,715.74C794.768,717.013 796.196,717.853 797.776,718.073C799.357,718.294 800.96,717.878 802.234,716.916Z" style="fill:rgb(187,187,187);"/>
            </g>
            <g transform="matrix(1,0,0,1,0,185.946)">
                <path d="M549.299,680.004L549.299,683.305C549.299,687.907 545.568,691.638 540.966,691.638L540.965,691.638C536.363,691.638 532.632,687.907 532.632,683.305L532.632,662.709C532.632,661.636 532.835,660.61 533.204,659.668C535.103,652.849 541.508,647.826 549.109,647.826C552.926,647.826 556.441,649.092 559.235,651.217L608.664,681.287C612.595,683.679 613.844,688.806 611.452,692.738L611.451,692.738C609.059,696.67 603.933,697.919 600.001,695.527L562.753,672.866L562.731,672.899L555.663,669.001C555.068,668.422 554.256,668.065 553.361,668.065C551.539,668.065 550.06,669.544 550.06,671.365C550.06,671.468 550.065,671.57 550.074,671.671L549.277,680.006L549.299,680.004Z" style="fill:rgb(209,209,209);"/>
            </g>
            <g transform="matrix(1,0,0,1,0,185.946)">
                <path d="M548.606,673.506L548.606,675.888C548.606,679.21 545.912,681.903 542.59,681.903L542.589,681.903C539.267,681.903 536.574,679.21 536.574,675.888L536.574,661.021C536.574,660.246 536.72,659.505 536.987,658.826C538.358,653.903 542.981,650.277 548.468,650.277C551.223,650.277 553.761,651.191 555.778,652.725L591.459,674.432C594.297,676.159 595.198,679.859 593.472,682.698L593.471,682.698C591.745,685.536 588.044,686.437 585.206,684.711L558.318,668.353L558.301,668.376L553.199,665.563C552.77,665.145 552.183,664.887 551.537,664.887C550.222,664.887 549.155,665.954 549.155,667.269C549.155,667.344 549.158,667.417 549.165,667.49L548.589,673.507L548.606,673.506Z" style="fill:rgb(187,187,187);"/>
            </g>
            <g transform="matrix(1,0,0,1,0,185.946)">
                <path d="M418.441,720.494C418.441,722.071 417.162,723.35 415.585,723.35L404.449,723.35C399.714,723.119 395.499,721.82 391.804,719.453C388.108,717.085 384.962,714.112 382.363,710.532C379.765,706.952 377.773,702.968 376.387,698.579C375.001,694.191 374.309,689.861 374.309,685.588C374.309,681.2 375.03,676.783 376.474,672.337C377.917,667.891 380.025,663.849 382.796,660.211C385.568,656.573 388.917,653.6 392.843,651.29C396.769,648.981 401.215,647.826 406.181,647.826L441.983,647.826C444.188,647.826 446.303,648.702 447.862,650.261C449.421,651.82 450.297,653.935 450.297,656.14L450.297,656.179C450.297,658.384 449.421,660.498 447.862,662.058C446.303,663.617 444.188,664.493 441.983,664.493L414.251,664.493C413.985,664.493 413.72,664.48 413.457,664.455L409.819,664.455C405.777,664.455 402.515,665.177 400.032,666.62C397.549,668.064 395.586,669.825 394.142,671.904C392.699,673.982 391.717,676.263 391.198,678.746C390.678,681.229 390.418,683.509 390.418,685.588C390.418,687.667 390.678,689.947 391.198,692.43C391.717,694.913 392.699,697.194 394.142,699.272C395.586,701.351 397.549,703.112 400.032,704.556C402.515,705.999 405.777,706.721 409.819,706.721L415.585,706.721C416.343,706.721 417.069,707.022 417.605,707.557C418.14,708.093 418.441,708.819 418.441,709.577L418.441,720.494Z" style="fill:rgb(209,209,209);"/>
            </g>
            <g transform="matrix(1,0,0,1,0,185.946)">
                <path d="M444.473,653.01C444.473,652.423 444.24,651.86 443.825,651.445C443.41,651.03 442.847,650.797 442.26,650.797L413.154,650.797C412.567,650.797 412.004,651.03 411.589,651.445C411.174,651.86 410.941,652.423 410.941,653.01L410.941,659.413C410.941,660 411.174,660.562 411.589,660.977C412.004,661.392 412.567,661.626 413.154,661.626L442.26,661.626C442.847,661.626 443.41,661.392 443.825,660.977C444.24,660.562 444.473,660 444.473,659.413L444.473,653.01Z" style="fill:rgb(187,187,187);"/>
            </g>
            <g transform="matrix(1,0,0,1,0,185.946)">
                <path d="M620.57,695.374C622.078,696.245 622.595,698.175 621.725,699.683C620.854,701.19 618.924,701.707 617.416,700.837C615.909,699.967 615.392,698.036 616.262,696.529C617.132,695.021 619.063,694.504 620.57,695.374Z" style="fill:white;"/>
            </g>
            <g transform="matrix(1,0,0,1,0,185.946)">
                <path d="M771.109,672.148C772.173,673.525 771.92,675.507 770.542,676.572C769.165,677.636 767.183,677.382 766.118,676.005C765.054,674.628 765.308,672.645 766.685,671.581C768.062,670.516 770.044,670.77 771.109,672.148Z" style="fill:white;"/>
            </g>
            <g transform="matrix(1,0,0,1,0,185.946)">
                <path d="M290.277,697.28C290.277,699.021 288.863,700.434 287.123,700.434C285.382,700.434 283.969,699.021 283.969,697.28C283.969,695.539 285.382,694.126 287.123,694.126C288.863,694.126 290.277,695.539 290.277,697.28Z" style="fill:white;"/>
            </g>
            <g transform="matrix(1,0,0,1,0,185.946)">
                <path d="M458.792,653.285C460.532,653.285 461.945,654.698 461.945,656.439C461.945,658.18 460.532,659.593 458.792,659.593C457.051,659.593 455.638,658.18 455.638,656.439C455.638,654.698 457.051,653.285 458.792,653.285Z" style="fill:white;"/>
            </g>
            <g transform="matrix(1,0,0,1,0,185.946)">
                <path d="M467.197,659.579C467.1,659.588 467.001,659.593 466.901,659.593C465.161,659.593 463.747,658.18 463.747,656.439C463.747,654.698 465.161,653.285 466.901,653.285C467.001,653.285 467.1,653.29 467.197,653.299L467.197,653.285L475.747,653.285L475.747,653.287C477.439,653.342 478.795,654.733 478.795,656.439C478.795,658.144 477.439,659.536 475.747,659.591L475.747,659.593L467.197,659.593L467.197,659.579Z" style="fill:rgb(187,187,187);"/>
            </g>
            <g transform="matrix(1,0,0,1,0,185.946)">
                <path d="M290.492,714.971C290.501,715.068 290.506,715.167 290.506,715.267C290.506,717.007 289.093,718.42 287.352,718.42C285.611,718.42 284.198,717.007 284.198,715.267C284.198,715.167 284.203,715.068 284.212,714.971L284.198,714.971L284.198,706.421L284.2,706.421C284.255,704.729 285.646,703.372 287.352,703.372C289.057,703.372 290.449,704.729 290.504,706.421L290.506,706.421L290.506,714.971L290.492,714.971Z" style="fill:rgb(187,187,187);"/>
            </g>
            <g transform="matrix(1,0,0,1,0,185.946)">
                <path d="M636.13,704.875C636.218,704.916 636.306,704.961 636.393,705.011C637.9,705.881 638.418,707.812 637.547,709.319C636.677,710.827 634.746,711.344 633.239,710.474C633.152,710.424 633.069,710.37 632.989,710.314L632.983,710.326L625.579,706.051L625.579,706.05C624.142,705.155 623.662,703.272 624.515,701.795C625.368,700.318 627.238,699.792 628.732,700.59L628.732,700.588L636.136,704.863L636.13,704.875Z" style="fill:rgb(187,187,187);"/>
            </g>
            <g transform="matrix(1,0,0,1,0,185.946)">
                <path d="M781.78,686.165C781.847,686.236 781.911,686.311 781.973,686.39C783.044,687.762 782.799,689.746 781.427,690.817C780.055,691.888 778.072,691.644 777.001,690.272C776.939,690.193 776.882,690.112 776.829,690.03L776.818,690.038L771.557,683.299L771.559,683.298C770.561,681.93 770.823,680.005 772.167,678.955C773.512,677.906 775.443,678.119 776.528,679.419L776.53,679.418L781.79,686.157L781.78,686.165Z" style="fill:rgb(187,187,187);"/>
            </g>
        </g>
    </g>
</svg>
