<?xml version="1.0" encoding="UTF-8" standalone="no"?>
<!DOCTYPE svg PUBLIC "-//W3C//DTD SVG 1.1//EN" "http://www.w3.org/Graphics/SVG/1.1/DTD/svg11.dtd">
<svg width="100%" height="100%" viewBox="0 0 723 193" version="1.1" xmlns="http://www.w3.org/2000/svg" xmlns:xlink="http://www.w3.org/1999/xlink" xml:space="preserve" xmlns:serif="http://www.serif.com/" style="fill-rule:evenodd;clip-rule:evenodd;stroke-linejoin:round;stroke-miterlimit:2;">
    <g transform="matrix(1,0,0,1,-667.457,-2649.32)">
        <g transform="matrix(4.10699,0,0,4.10699,-735.817,-5879.99)">
            <g transform="matrix(50,0,0,50,341.557,2113.64)">
                <path d="M0.002,-0L0.111,-0.214C0.163,-0.319 0.237,-0.371 0.331,-0.371L0.518,-0.371L0.592,-0.225L0.327,-0.225C0.297,-0.225 0.276,-0.213 0.265,-0.191L0.169,-0L0.002,-0ZM0.886,-0L0.725,-0L0.448,-0.551L0.371,-0.401L0.205,-0.401L0.375,-0.737L0.516,-0.737L0.886,-0Z" style="fill-rule:nonzero;"/>
            </g>
            <g transform="matrix(50,0,0,50,385.307,2113.64)">
                <path d="M0.303,0.01L0.303,-0.127C0.353,-0.127 0.393,-0.14 0.423,-0.166C0.452,-0.191 0.466,-0.225 0.466,-0.268C0.466,-0.31 0.452,-0.344 0.423,-0.371C0.395,-0.397 0.355,-0.41 0.303,-0.41C0.264,-0.41 0.244,-0.393 0.244,-0.359L0.244,0.2L0.098,0.2L0.098,-0.37C0.098,-0.488 0.166,-0.547 0.303,-0.547C0.39,-0.547 0.463,-0.522 0.523,-0.472C0.583,-0.422 0.613,-0.354 0.613,-0.269C0.613,-0.184 0.581,-0.114 0.518,-0.061C0.462,-0.014 0.39,0.01 0.303,0.01Z" style="fill-rule:nonzero;"/>
            </g>
            <g transform="matrix(50,0,0,50,418.388,2113.64)">
                <path d="M0.337,0.01C0.263,0.01 0.196,-0.016 0.137,-0.069C0.078,-0.12 0.049,-0.187 0.049,-0.269C0.049,-0.35 0.078,-0.416 0.137,-0.469C0.196,-0.521 0.263,-0.547 0.337,-0.547C0.412,-0.547 0.479,-0.521 0.538,-0.468C0.596,-0.417 0.625,-0.35 0.625,-0.269C0.625,-0.188 0.596,-0.121 0.537,-0.068C0.478,-0.016 0.411,0.01 0.337,0.01ZM0.337,-0.127C0.377,-0.127 0.411,-0.14 0.439,-0.167C0.466,-0.192 0.479,-0.226 0.479,-0.269C0.479,-0.313 0.465,-0.347 0.438,-0.372C0.411,-0.397 0.377,-0.41 0.337,-0.41C0.297,-0.41 0.263,-0.397 0.236,-0.371C0.209,-0.345 0.195,-0.311 0.195,-0.269C0.195,-0.225 0.209,-0.19 0.236,-0.166C0.264,-0.14 0.298,-0.127 0.337,-0.127Z" style="fill-rule:nonzero;"/>
            </g>
            <g transform="matrix(50,0,0,50,452.128,2113.64)">
                <rect x="0.098" y="-0.737" width="0.146" height="0.737" style="fill-rule:nonzero;"/>
            </g>
            <g transform="matrix(50,0,0,50,469.218,2113.64)">
                <rect x="0.098" y="-0.737" width="0.146" height="0.737" style="fill-rule:nonzero;"/>
            </g>
            <g transform="matrix(50,0,0,50,486.308,2113.64)">
                <path d="M0.337,0.01C0.263,0.01 0.196,-0.016 0.137,-0.069C0.078,-0.12 0.049,-0.187 0.049,-0.269C0.049,-0.35 0.078,-0.416 0.137,-0.469C0.196,-0.521 0.263,-0.547 0.337,-0.547C0.412,-0.547 0.479,-0.521 0.538,-0.468C0.596,-0.417 0.625,-0.35 0.625,-0.269C0.625,-0.188 0.596,-0.121 0.537,-0.068C0.478,-0.016 0.411,0.01 0.337,0.01ZM0.337,-0.127C0.377,-0.127 0.411,-0.14 0.439,-0.167C0.466,-0.192 0.479,-0.226 0.479,-0.269C0.479,-0.313 0.465,-0.347 0.438,-0.372C0.411,-0.397 0.377,-0.41 0.337,-0.41C0.297,-0.41 0.263,-0.397 0.236,-0.371C0.209,-0.345 0.195,-0.311 0.195,-0.269C0.195,-0.225 0.209,-0.19 0.236,-0.166C0.264,-0.14 0.298,-0.127 0.337,-0.127Z" style="fill-rule:nonzero;"/>
            </g>
        </g>
    </g>
</svg>
