<svg width="80" height="80" viewBox="0 0 80 80" fill="none" xmlns="http://www.w3.org/2000/svg">
<circle cx="40" cy="40" r="40" fill="#000C25"/>
<path d="M57.1698 22.2161L37.4261 29.4835L22.0095 35.1576C20.3909 35.7536 20.0615 36.7229 20.0091 37.2473C19.9566 37.7727 20.0886 38.7873 21.5566 39.6909L31.9849 46.1081V56.2528C31.9849 57.939 32.6284 58.5243 33.1684 58.7181C33.3102 58.7692 33.4742 58.8039 33.6591 58.8039C34.1782 58.8039 34.859 58.5296 35.6506 57.5697L40.6878 51.464L46.1971 54.8537C46.5824 55.0906 47.0077 55.2128 47.4277 55.2128C47.6646 55.2128 47.9002 55.1732 48.1241 55.095C48.7455 54.8764 49.2397 54.3679 49.4779 53.7008L53.9903 41.0659L59.7946 24.8147C60.2666 23.4938 59.8191 22.7836 59.5102 22.4778C59.2008 22.1721 58.4884 21.7307 57.1698 22.2161ZM21.5113 37.3976C21.534 37.1727 21.8135 36.8385 22.5313 36.5745L37.9483 30.9003L56.9827 23.8938L32.6666 44.7548L22.3482 38.4055C21.6975 38.0047 21.4895 37.622 21.5113 37.3976ZM34.4871 56.6097C34.0804 57.1017 33.7924 57.2581 33.6835 57.287C33.6182 57.195 33.4951 56.8914 33.4951 56.2532V47.0378L36.4946 48.8836C36.495 48.884 36.4955 48.884 36.4959 48.884L39.3905 50.6658L34.4871 56.6097ZM48.0561 53.1928C47.9704 53.4324 47.817 53.6026 47.6237 53.6702C47.429 53.7373 47.2051 53.7004 46.9882 53.5684L37.2879 47.5992C37.2875 47.5983 37.2866 47.5983 37.2861 47.5974L34.0164 45.5859L58.1755 24.8587L52.5681 40.5588L48.0561 53.1928Z" fill="white"/>
</svg>
