<svg width="68" height="68" viewBox="0 0 68 68" fill="none" xmlns="http://www.w3.org/2000/svg">
<circle cx="34" cy="34" r="34" fill="#F4F4F4"/>
<path d="M27 23.125H19.6875V24.75H27V23.125Z" fill="#FF0081"/>
<path d="M32.6875 23.125H28.625V24.75H32.6875V23.125Z" fill="#FF0081"/>
<path d="M27 35.3125H19.6875V36.9375H27V35.3125Z" fill="#FF0081"/>
<path d="M32.6875 35.3125H28.625V36.9375H32.6875V35.3125Z" fill="#FF0081"/>
<path d="M24.5625 31.25H19.6875V32.875H24.5625V31.25Z" fill="#FF0081"/>
<path d="M40 31.25H37.5625V32.875H40V31.25Z" fill="#FF0081"/>
<path d="M35.9375 31.25H26.1875V32.875H35.9375V31.25Z" fill="#FF0081"/>
<path d="M33.5 27.1875H30.25V28.8125H33.5V27.1875Z" fill="#FF0081"/>
<path d="M28.625 27.1875H19.6875V28.8125H28.625V27.1875Z" fill="#FF0081"/>
<path d="M47.3125 27.1875H35.125V28.8125H47.3125V27.1875Z" fill="#FF0081"/>
<path d="M31.875 39.375H19.6875V41H31.875V39.375Z" fill="#FF0081"/>
<path d="M45.0432 34.3315L43.8943 35.4805L46.1636 37.7497L43.8943 40.019L45.0432 41.168L48.4614 37.7497L45.0432 34.3315Z" fill="#FF0081"/>
<path d="M38.5432 35.4805L37.3943 34.3315L33.9761 37.7497L37.3943 41.168L38.5432 40.019L36.2739 37.7497L38.5432 35.4805Z" fill="#FF0081"/>
<path d="M42.0872 33.3938L38.8398 41.5195L40.3488 42.1226L43.5962 33.9968L42.0872 33.3938Z" fill="#FF0081"/>
<path d="M51.375 43.4375V19.0625H15.625V43.4375H14V46.9335L16.0027 49.9375H50.9973L53 46.9335V43.4375H51.375ZM17.25 20.6875H49.75V43.4375H17.25V20.6875ZM51.375 46.4415L50.1277 48.3125H16.8723L15.625 46.4415V45.0625H51.375V46.4415Z" fill="#FF0081"/>
<path d="M37.5625 45.875H35.9375V47.5H37.5625V45.875Z" fill="#FF0081"/>
<path d="M34.3125 45.875H32.6875V47.5H34.3125V45.875Z" fill="#FF0081"/>
<path d="M31.0625 45.875H29.4375V47.5H31.0625V45.875Z" fill="#FF0081"/>
</svg>
