<svg width="39" height="39" viewBox="0 0 39 39" fill="none" xmlns="http://www.w3.org/2000/svg">
<g clip-path="url(#clip0_315:162)">
<path d="M37.2399 10.0632C35.3051 7.03898 32.6281 4.51456 29.4983 2.76276C26.2689 0.95535 22.594 0 18.8711 0C18.5287 0 18.2512 0.277571 18.2512 0.619964V4.59317C14.8711 4.71231 11.6463 5.80454 8.88916 7.77099C8.61037 7.9698 8.54555 8.35699 8.74436 8.6357C8.94317 8.91434 9.33019 8.97939 9.60914 8.78043C12.1549 6.96479 15.1309 5.95201 18.2512 5.83348V12.5554C15.2398 12.7518 12.5412 14.3734 10.9456 16.9773C10.7667 17.2693 10.8583 17.6509 11.1502 17.8297C11.2513 17.8917 11.3631 17.9211 11.4736 17.9211C11.6822 17.9211 11.8858 17.816 12.0027 17.625C13.371 15.392 15.6751 13.9936 18.2512 13.7992V21.791C18.2512 22.0174 18.3746 22.2259 18.5733 22.3346C18.6663 22.3856 18.7688 22.411 18.8712 22.411C18.9874 22.411 19.1034 22.3783 19.2048 22.3136L25.9564 18.0033C26.5883 19.1726 26.9202 20.4813 26.9202 21.8241C26.9202 26.2624 23.3094 29.8731 18.8712 29.8731C18.5565 29.8731 18.2362 29.8543 17.9189 29.8168C15.4444 29.5253 13.2811 28.131 11.9834 25.9913C11.2237 24.7385 10.8221 23.2974 10.8221 21.8242C10.8221 21.085 10.9222 20.3529 11.1195 19.6483C11.2118 19.3186 11.0195 18.9765 10.6897 18.8842C10.3606 18.792 10.018 18.9844 9.92563 19.314C9.69773 20.1274 9.58225 20.972 9.58225 21.8243C9.58225 23.3166 9.93957 24.7806 10.6203 26.0946L4.92113 29.5687C3.5984 27.2001 2.90189 24.5244 2.90189 21.7912C2.90189 17.4274 4.62909 13.3522 7.76516 10.3162C8.01112 10.0781 8.01752 9.68558 7.77941 9.43962C7.54122 9.19366 7.14901 9.18718 6.90282 9.42537C3.5233 12.697 1.66211 17.0885 1.66211 21.7911C1.66211 24.9603 2.53123 28.0582 4.17556 30.7499C5.51177 32.9373 7.35483 34.8323 9.50524 36.2296C11.7042 37.6587 14.2425 38.5755 16.8453 38.8809C17.5201 38.9602 18.2016 39.0002 18.8713 39.0002C28.3604 39.0002 36.0803 31.2803 36.0803 21.7911C36.0803 18.7038 35.26 15.6979 33.7026 13.0581L37.0514 10.9201C37.1901 10.8316 37.2878 10.6916 37.3232 10.5309C37.3585 10.37 37.3285 10.2019 37.2399 10.0632ZM16.3761 37.5651C14.1777 37.2183 12.0474 36.4031 10.1806 35.19C8.35809 34.0054 6.7734 32.436 5.56745 30.6266L11.2625 27.1549C12.6639 29.159 14.7634 30.5119 17.1598 30.9555L16.3761 37.5651ZM34.8403 21.7909C34.8403 30.5964 27.6765 37.7602 18.8711 37.7602C18.4535 37.7602 18.0304 37.7433 17.6077 37.7099L18.3914 31.1004C18.5519 31.1087 18.7121 31.1128 18.8711 31.1128C23.9931 31.1128 28.16 26.9459 28.16 21.824C28.16 20.2439 27.7621 18.7043 27.0044 17.334L31.6391 14.3751L32.6567 13.7254C34.0872 16.1655 34.8403 18.9405 34.8403 21.7909ZM32.5218 12.3406C32.5218 12.3406 32.5217 12.3406 32.5216 12.3406L25.8299 16.6127C25.8296 16.6128 25.8293 16.613 25.829 16.6133L19.4909 20.6597V13.1551V5.20179V1.24907C26.0888 1.4446 32.1284 4.75367 35.8532 10.2138L32.5218 12.3406Z" fill="#FF0081"/>
</g>
<defs>
<clipPath id="clip0_315:162">
<rect width="39" height="39" fill="white"/>
</clipPath>
</defs>
</svg>
