<svg width="39" height="39" viewBox="0 0 39 39" fill="none" xmlns="http://www.w3.org/2000/svg">
<path d="M38.789 12.8035L35.7572 9.77172C35.6222 9.6366 35.4391 9.56076 35.2482 9.56076C35.0572 9.56076 34.8742 9.6366 34.739 9.77172L33.5536 10.9572C29.1212 7.86684 23.4706 7.2456 18.5489 9.09468L23.2118 4.43172C23.5387 4.59936 23.9023 4.68972 24.2802 4.68972C24.9066 4.68972 25.4956 4.44576 25.9385 4.00272C26.8525 3.08856 26.8525 1.60092 25.9384 0.68676C25.4957 0.24384 24.9068 0 24.2806 0C23.6542 0 23.0653 0.24384 22.6225 0.68688C21.8858 1.42344 21.7438 2.53188 22.1941 3.41316L14.8285 10.7786L13.8217 9.77184C13.5407 9.49056 13.0846 9.49056 12.8036 9.77184L9.77184 12.8036C9.63672 12.9386 9.56088 13.1218 9.56088 13.3127C9.56088 13.5037 9.63672 13.6867 9.77184 13.8218L10.7786 14.8285L3.41328 22.1938C3.0864 22.026 2.7228 21.9358 2.34492 21.9358C1.71864 21.9358 1.1298 22.1796 0.68688 22.6225C0.24384 23.0653 0 23.6542 0 24.2806C0 24.907 0.24384 25.4958 0.68688 25.9385C1.12968 26.3814 1.71852 26.6254 2.34468 26.6254C2.97108 26.6254 3.5598 26.3815 4.00272 25.9385C4.73952 25.2018 4.88148 24.0935 4.43112 23.2121L9.09444 18.5489C7.24548 23.4708 7.86684 29.1214 10.9574 33.5534L9.77172 34.7392C9.49044 35.0203 9.49044 35.4762 9.77172 35.7572L12.8035 38.789C12.944 38.9297 13.1284 39 13.3126 39C13.4968 39 13.6811 38.9297 13.8216 38.789L16.8534 35.7572C17.1347 35.4761 17.1347 35.0202 16.8534 34.7392L13.8216 31.7074C13.5406 31.4261 13.0844 31.4261 12.8035 31.7074L11.9948 32.516C8.66484 27.5575 8.66484 21.0034 11.9947 16.0447L12.8035 16.8534C12.944 16.9939 13.1284 17.0642 13.3126 17.0642C13.4968 17.0642 13.6811 16.9939 13.8216 16.8534L16.8534 13.8217C16.9885 13.6866 17.0644 13.5036 17.0644 13.3126C17.0644 13.1216 16.9885 12.9385 16.8534 12.8035L16.0446 11.9947C21.003 8.66508 27.5569 8.66496 32.516 11.9947L31.7074 12.8034C31.4262 13.0846 31.4262 13.5404 31.7074 13.8215L34.739 16.8533C34.8742 16.9884 35.0572 17.0642 35.2482 17.0642C35.4391 17.0642 35.6222 16.9884 35.7572 16.8533L38.789 13.8215C39.0703 13.5406 39.0703 13.0847 38.789 12.8035ZM13.3128 33.2347L15.3263 35.2482L13.3128 37.2617L11.2992 35.2482L13.3128 33.2347ZM23.6406 1.70496C23.8116 1.53408 24.0388 1.44 24.2806 1.44C24.5222 1.44 24.7494 1.53408 24.9203 1.70496C25.2731 2.05776 25.2731 2.63184 24.9204 2.98464C24.7494 3.15552 24.5221 3.24972 24.2803 3.24972C24.0389 3.24972 23.812 3.15576 23.6411 2.98524L23.6407 2.98476C23.6406 2.98464 23.6404 2.98452 23.6404 2.98452C23.2878 2.6316 23.2879 2.05764 23.6406 1.70496ZM2.98464 24.9203C2.81364 25.0913 2.58648 25.1854 2.34468 25.1854C2.103 25.1854 1.87596 25.0913 1.70496 24.9203C1.53408 24.7494 1.44 24.5222 1.44 24.2806C1.44 24.0388 1.53408 23.8115 1.70496 23.6406C1.87596 23.4697 2.10312 23.3756 2.3448 23.3756C2.58624 23.3756 2.81328 23.4696 2.98416 23.64L2.98452 23.6405C2.98464 23.6406 2.98488 23.6407 2.98488 23.6407C3.33744 23.9936 3.33732 24.5676 2.98464 24.9203ZM13.3128 15.3262L12.3062 14.3197C12.3061 14.3196 12.3061 14.3195 12.3061 14.3195C12.3059 14.3192 12.3058 14.3191 12.3056 14.3191L11.2991 13.3126L13.3126 11.2991L14.3176 12.304C14.3182 12.3047 14.3185 12.3054 14.3191 12.306C14.3197 12.3066 14.3204 12.307 14.321 12.3076L14.413 12.3995C14.4149 12.4014 14.4167 12.4032 14.4186 12.4051L15.3263 13.3128L13.3128 15.3262ZM35.2482 15.3262L33.2348 13.3127L35.2482 11.2992L37.2617 13.3127L35.2482 15.3262Z" fill="#FF0081"/>
</svg>
