<svg width="80" height="80" viewBox="0 0 80 80" fill="none" xmlns="http://www.w3.org/2000/svg">
<circle cx="40" cy="40" r="40" fill="#E045E6"/>
<path d="M56.4897 50.5283L59.949 38.6817C60.0054 38.483 60.0151 38.274 59.9774 38.0709C59.9397 37.8678 59.8556 37.6762 59.7317 37.511C59.6078 37.3458 59.4474 37.2114 59.263 37.1183C59.0786 37.0253 58.8752 36.9761 58.6687 36.9745H37.4094L35.6035 30.7943C35.4807 30.3798 35.2276 30.0159 34.8816 29.7566C34.5357 29.4973 34.1154 29.3563 33.6831 29.3547H31.2963C31.1194 29.3547 30.9498 29.425 30.8247 29.5501C30.6997 29.6751 30.6294 29.8447 30.6294 30.0216C30.6294 30.1985 30.6997 30.3681 30.8247 30.4931C30.9498 30.6182 31.1194 30.6885 31.2963 30.6885H33.683C33.8271 30.689 33.9672 30.7359 34.0825 30.8223C34.1978 30.9087 34.2822 31.03 34.3232 31.1681C34.3361 31.2055 36.2628 37.8105 36.2737 37.8429L39.9695 50.5281C40.0098 50.6666 40.094 50.7883 40.2095 50.8749C40.3249 50.9615 40.4653 51.0083 40.6096 51.0083H55.8495C55.9938 51.0083 56.1342 50.9616 56.2496 50.875C56.365 50.7885 56.4493 50.6668 56.4897 50.5283ZM41.1098 49.6746L37.7985 38.3082H58.6687L55.3497 49.6746H41.1098Z" fill="white"/>
<path d="M51.9692 53.6757C51.9757 54.3789 52.2596 55.0511 52.7592 55.5461C53.2587 56.041 53.9335 56.3187 54.6367 56.3187C55.34 56.3187 56.0147 56.041 56.5143 55.546C57.0138 55.0511 57.2977 54.3789 57.3042 53.6757C57.2977 52.9725 57.0138 52.3003 56.5142 51.8053C56.0147 51.3104 55.3399 51.0327 54.6367 51.0327C53.9334 51.0327 53.2587 51.3104 52.7591 51.8054C52.2596 52.3003 51.9757 52.9725 51.9692 53.6757ZM54.6367 52.342C54.9871 52.3471 55.3214 52.4898 55.5674 52.7394C55.8133 52.989 55.9512 53.3253 55.9512 53.6758C55.9512 54.0262 55.8133 54.3625 55.5673 54.6121C55.3213 54.8616 54.987 55.0044 54.6366 55.0095C54.2863 55.0044 53.952 54.8616 53.706 54.612C53.46 54.3625 53.3221 54.0261 53.3221 53.6757C53.3221 53.3253 53.46 52.9889 53.706 52.7394C53.952 52.4898 54.2863 52.3471 54.6367 52.342Z" fill="white"/>
<path d="M38.6318 53.6757C38.6383 54.3789 38.9222 55.0511 39.4218 55.5461C39.9213 56.041 40.5961 56.3187 41.2993 56.3187C42.0026 56.3187 42.6773 56.041 43.1769 55.546C43.6764 55.0511 43.9603 54.3789 43.9668 53.6757C43.9603 52.9725 43.6764 52.3003 43.1768 51.8053C42.6773 51.3104 42.0025 51.0327 41.2993 51.0327C40.596 51.0327 39.9213 51.3104 39.4217 51.8054C38.9222 52.3003 38.6383 52.9725 38.6318 53.6757ZM41.2993 52.342C41.6497 52.3471 41.984 52.4898 42.23 52.7394C42.4759 52.989 42.6138 53.3253 42.6138 53.6758C42.6138 54.0262 42.4759 54.3625 42.2299 54.6121C41.9839 54.8616 41.6496 55.0044 41.2992 55.0095C40.9489 55.0044 40.6146 54.8616 40.3686 54.612C40.1226 54.3625 39.9847 54.0261 39.9847 53.6757C39.9847 53.3253 40.1226 52.9889 40.3686 52.7394C40.6146 52.4898 40.9489 52.3471 41.2993 52.342Z" fill="white"/>
<path d="M37.6896 46.7939L21.3302 46.7734L23.8817 42.6859H36.1025C36.2794 42.6859 36.449 42.6156 36.5741 42.4906C36.6991 42.3655 36.7694 42.1959 36.7694 42.019C36.7694 41.8422 36.6991 41.6725 36.5741 41.5475C36.449 41.4224 36.2794 41.3522 36.1025 41.3522H24.1787V24.3337H45.2784V27.3613C45.281 27.5365 45.3524 27.7036 45.4772 27.8265C45.602 27.9494 45.7701 28.0184 45.9453 28.0184C46.1205 28.0184 46.2886 27.9494 46.4134 27.8265C46.5382 27.7036 46.6096 27.5365 46.6122 27.3613V24.3337C46.6118 23.9801 46.4712 23.6411 46.2211 23.391C45.9711 23.141 45.6321 23.0004 45.2784 23H24.1787C23.8251 23.0004 23.4861 23.141 23.236 23.391C22.986 23.6411 22.8453 23.9801 22.845 24.3337V41.8283L20.201 46.0639C20.0754 46.2679 20.0062 46.5015 20.0004 46.741C19.9946 46.9805 20.0525 47.2173 20.1681 47.4271C20.2837 47.6369 20.4529 47.8123 20.6585 47.9354C20.864 48.0584 21.0985 48.1248 21.3381 48.1276H37.6896C37.864 48.1239 38.0301 48.0521 38.1522 47.9274C38.2742 47.8027 38.3426 47.6352 38.3426 47.4607C38.3426 47.2862 38.2742 47.1187 38.1521 46.9941C38.0301 46.8694 37.864 46.7976 37.6896 46.7939Z" fill="white"/>
<path d="M46.6336 34.4507C46.5126 34.5766 46.4458 34.7449 46.4475 34.9194C46.4493 35.094 46.5194 35.261 46.6429 35.3844C46.7663 35.5079 46.9333 35.578 47.1079 35.5797C47.2824 35.5814 47.4507 35.5146 47.5766 35.3936C47.8308 35.1516 48.1684 35.0166 48.5194 35.0166C48.8704 35.0166 49.208 35.1516 49.4622 35.3936C49.5242 35.4555 49.5977 35.5047 49.6786 35.5382C49.7595 35.5717 49.8462 35.5889 49.9337 35.5889C50.0213 35.5889 50.108 35.5717 50.1889 35.5382C50.2698 35.5047 50.3433 35.4555 50.4052 35.3936C50.4671 35.3317 50.5163 35.2582 50.5498 35.1773C50.5833 35.0964 50.6005 35.0097 50.6005 34.9221C50.6005 34.8346 50.5833 34.7479 50.5498 34.667C50.5163 34.5861 50.4671 34.5126 50.4052 34.4506C49.9033 33.9538 49.2256 33.675 48.5194 33.675C47.8132 33.6751 47.1355 33.9538 46.6336 34.4507Z" fill="white"/>
<path d="M51.8205 33.7013C51.9515 33.6992 52.0789 33.6588 52.1872 33.5852C52.2955 33.5116 52.3799 33.4079 52.43 33.2869C52.4802 33.1659 52.4938 33.0329 52.4693 32.9042C52.4447 32.7756 52.3831 32.6569 52.292 32.5629C51.2912 31.5629 49.9343 31.0012 48.5195 31.0012C47.1048 31.0012 45.7479 31.5629 44.7471 32.5629C44.6261 32.6888 44.5593 32.8571 44.5611 33.0316C44.5628 33.2062 44.6329 33.3732 44.7564 33.4966C44.8798 33.6201 45.0468 33.6902 45.2214 33.6919C45.396 33.6936 45.5643 33.6268 45.6901 33.5058C46.4433 32.7606 47.4601 32.3427 48.5196 32.3427C49.5791 32.3427 50.5959 32.7607 51.349 33.5059C51.4109 33.5679 51.4844 33.6171 51.5653 33.6506C51.6462 33.6841 51.7329 33.7013 51.8205 33.7013Z" fill="white"/>
<path d="M42.8597 31.6192C42.9216 31.6812 42.9951 31.7303 43.076 31.7638C43.1569 31.7973 43.2436 31.8146 43.3312 31.8146C43.4187 31.8146 43.5055 31.7973 43.5864 31.7638C43.6673 31.7303 43.7408 31.6812 43.8027 31.6192C45.0583 30.3771 46.7532 29.6804 48.5194 29.6804C50.2856 29.6805 51.9805 30.3772 53.2362 31.6193C53.3613 31.7439 53.5308 31.8137 53.7074 31.8135C53.8839 31.8133 54.0532 31.7431 54.1781 31.6182C54.303 31.4933 54.3732 31.324 54.3734 31.1474C54.3736 30.9708 54.3037 30.8014 54.1791 30.6762C52.6775 29.1763 50.6419 28.3337 48.5194 28.3337C46.397 28.3337 44.3613 29.1763 42.8597 30.6762C42.7977 30.7381 42.7486 30.8116 42.7151 30.8925C42.6816 30.9734 42.6643 31.0602 42.6643 31.1477C42.6643 31.2353 42.6816 31.322 42.7151 31.4029C42.7486 31.4838 42.7977 31.5573 42.8597 31.6192Z" fill="white"/>
<circle cx="40" cy="40" r="34" fill="white" fill-opacity="0.11"/>
</svg>
