<svg width="39" height="39" viewBox="0 0 39 39" fill="none" xmlns="http://www.w3.org/2000/svg">
<path d="M33.3252 18.2739C33.4014 17.7179 33.4852 17.2456 33.4852 16.6896C33.4852 11.3118 29.1281 6.9624 23.7352 6.9624C20.8787 6.9624 18.266 8.15068 16.4455 10.2073C15.4172 9.65127 14.2289 9.33896 13.0406 9.33896C9.31582 9.33896 6.22324 12.0278 5.66719 15.6688C2.74219 17.0856 0.837891 20.0944 0.837891 23.4155C0.837891 28.161 4.72266 32.0382 9.47578 32.0382H30.9486C34.9096 32.0382 38.0783 28.8771 38.1621 24.9999C38.1621 21.9149 36.1816 19.2261 33.3252 18.2739V18.2739ZM30.9486 30.4538H9.47578C5.59102 30.4538 2.42227 27.2927 2.42227 23.4155C2.42227 20.5667 4.08281 18.0378 6.70312 16.9333C6.93926 16.8571 7.17539 16.6134 7.17539 16.3011C7.41152 13.2161 9.87188 10.9233 12.9568 10.9233C14.1451 10.9233 15.1734 11.2433 16.2855 11.7155C16.6055 11.9517 17.0777 11.8755 17.3139 11.5556C18.8221 9.5751 21.1986 8.39443 23.7352 8.39443C28.2521 8.39443 31.9008 12.0354 31.9008 16.5372C31.9008 17.1694 31.8246 17.8778 31.6646 18.5177C31.4514 19.2185 31.9846 19.4698 32.2207 19.546C34.7572 20.1021 36.5016 22.311 36.5016 24.9237C36.5016 28.0011 34.0412 30.4538 30.9486 30.4538V30.4538Z" fill="#FF0081"/>
<path d="M12.2714 17.6953C13.1474 17.6953 13.8634 18.4037 13.8634 19.2797C13.8634 19.5768 14.0996 19.8129 14.3966 19.8129C14.6937 19.8129 14.9298 19.5768 14.9298 19.2797C14.9298 17.8172 13.7339 16.6289 12.2714 16.6289C10.8013 16.6289 9.61304 17.8172 9.61304 19.2797C9.61304 20.7422 10.8089 21.9305 12.2714 21.9305C13.1474 21.9305 13.8634 22.6389 13.8634 23.5148C13.8634 24.3908 13.1474 25.0992 12.2714 25.0992C11.3955 25.0992 10.6794 24.3908 10.6794 23.5148C10.6794 23.2178 10.4433 22.9816 10.1462 22.9816C9.84917 22.9816 9.61304 23.2178 9.61304 23.5148C9.61304 24.9773 10.8089 26.1656 12.2714 26.1656C13.7416 26.1656 14.9298 24.9773 14.9298 23.5148C14.9298 22.0523 13.7339 20.8717 12.2714 20.8717C11.3955 20.8717 10.6794 20.1633 10.6794 19.2873C10.6794 18.4113 11.3955 17.6953 12.2714 17.6953V17.6953Z" fill="#FF0081"/>
<path d="M21.0235 17.6953C21.3206 17.6953 21.5567 17.4592 21.5567 17.1621C21.5567 16.865 21.3206 16.6289 21.0235 16.6289H16.7122C16.4151 16.6289 16.179 16.865 16.179 17.1621V25.6476C16.179 25.9447 16.4151 26.1808 16.7122 26.1808H21.0235C21.3206 26.1808 21.5567 25.9447 21.5567 25.6476C21.5567 25.3506 21.3206 25.1144 21.0235 25.1144H17.2454V21.9381H21.0235C21.3206 21.9381 21.5567 21.7019 21.5567 21.4049C21.5567 21.1078 21.3206 20.8717 21.0235 20.8717H17.2454V17.6953H21.0235Z" fill="#FF0081"/>
<path d="M25.7994 16.6289C24.8092 16.6289 23.8875 17.1469 23.202 18.0914C22.5621 18.9826 22.2041 20.1557 22.2041 21.4049C22.2041 22.6541 22.5545 23.8271 23.202 24.7183C23.8799 25.6629 24.8016 26.1808 25.7994 26.1808C26.7973 26.1808 27.7113 25.6629 28.3969 24.7183C29.0367 23.8271 29.3947 22.6541 29.3947 21.4049C29.3947 20.1557 29.0443 18.9826 28.3969 18.0914C27.7113 17.1469 26.7896 16.6289 25.7994 16.6289ZM25.7994 25.1068C24.4055 25.1068 23.2781 23.4463 23.2781 21.3973C23.2781 19.3559 24.4131 17.6877 25.7994 17.6877C27.1934 17.6877 28.3207 19.3482 28.3207 21.3973C28.3207 23.4463 27.1934 25.1068 25.7994 25.1068Z" fill="#FF0081"/>
</svg>
