<svg id="Layer_1" enable-background="new 0 0 512 512" height="512" viewBox="0 0 512 512" width="512" xmlns="http://www.w3.org/2000/svg"><path d="m402.744 292.366c-9.075 43.141-25.883 83.438-48.744 116.98v82.707c-1.056 26.536-38.953 26.516-40 0v-69.015l-57.076-.043c-26.526-1.075-26.492-38.954.015-40h.015l66.516.05c18.658-28.492 32.465-62.468 40.132-98.912 1.581-7.521-1.607-15.252-8.123-19.694-37.076-25.27-68.257-64.023-95.324-118.472-.662-1.333-1.755-1.97-3.24-1.907-.609.028-1.217.028-1.826 0-1.482-.062-2.578.573-3.24 1.906-27.067 54.45-58.248 93.203-95.325 118.473-6.515 4.441-9.703 12.172-8.121 19.695 8.431 40.077 24.287 77.17 45.856 107.269 2.435 3.397 3.743 7.471 3.743 11.65v89c-1.056 26.536-38.953 26.516-40 0v-82.707c-22.861-33.542-39.669-73.839-48.743-116.979-4.93-23.442 4.78-47.377 24.736-60.98 31.266-21.31 58.099-55.075 82.035-103.226 7.519-15.127 23.147-24.504 39.972-24.091 16.885-.403 32.452 8.964 39.972 24.092 23.937 48.15 50.77 81.916 82.034 103.225 19.955 13.603 29.665 37.538 24.736 60.979zm-219.829-235.547c24.535-10.167 11.411-45.718-13.83-37.533-96.216 34.308-163.378 131.369-162.152 233.767-.001 11.045 8.953 19.999 19.999 19.999s20-8.954 20-20c0-87.403 54.647-166.263 135.983-196.233zm159-37.533c-10.364-3.819-21.862 1.488-25.682 11.852-3.819 10.365 1.487 21.863 11.852 25.682 83.09 30.615 138.915 109.475 138.915 196.233 0 11.046 8.954 20 20 20s20-8.954 20-20c0-103.44-66.343-197.384-165.085-233.767zm-82.915 296.767c-13.807 0-25-11.193-25-25 1.317-33.162 48.688-33.153 50 0 0 13.807-11.193 25-25 25zm-28-291c0 13.807 11.193 25 25 25 33.162-1.317 33.153-48.688 0-50-13.807 0-25 11.193-25 25zm256 278c-13.807 0-25 11.193-25 25 1.317 33.162 48.688 33.153 50 0 0-13.807-11.193-25-25-25zm-462 0c-13.807 0-25 11.193-25 25 1.317 33.162 48.688 33.153 50 0 0-13.807-11.193-25-25-25z"/></svg>