<svg width="80" height="80" viewBox="0 0 80 80" fill="none" xmlns="http://www.w3.org/2000/svg">
<circle cx="40" cy="40" r="40" fill="#000C25"/>
<path d="M52.4001 60.0001C53.6667 60.0001 54.6667 59.0001 54.6667 57.7334V44.9334C54.6667 43.6667 53.6667 42.6667 52.4001 42.6667H44.9334C43.6667 42.6667 42.6667 43.6667 42.6667 44.9334V57.7334C42.6667 59.0001 43.6667 60.0001 44.9334 60.0001H52.4001V60.0001ZM44.9334 44.0001H52.4001C52.9334 44.0001 53.3334 44.4001 53.3334 44.9334V56.0001H44.0001V44.9334C44.0001 44.4001 44.4001 44.0001 44.9334 44.0001ZM44.0001 57.7334V57.3334H53.3334V57.7334C53.3334 58.2667 52.9334 58.6667 52.4001 58.6667H44.9334C44.4001 58.6667 44.0001 58.2667 44.0001 57.7334Z" fill="white"/>
<path d="M57.3333 30C53.7333 23.8 47.1333 20 40 20C32.8667 20 26.2667 23.8 22.6667 30C20.9333 33 20 36.4667 20 40C20 43.5333 20.9333 47 22.6667 50C26.2 56.2 32.8667 60 40 60C40.0667 60 40.2 60 40.2667 59.9333C40.2667 59.9333 40.2667 59.9333 40.3333 59.8667C40.3333 59.8667 40.4 59.8667 40.4 59.8L40.4667 59.7333L40.5333 59.6667C40.5333 59.6 40.6 59.6 40.6 59.5333C40.6 59.5333 40.6 59.5333 40.6 59.4667C40.6 59.4 40.6 59.3333 40.6 59.2667V49.6667V40.6667H49.6H59.3333C59.7333 40.6667 60 40.4 60 40C60 36.4667 59.0667 33 57.3333 30ZM39.2667 57.8667C39.1333 57.8 39.0667 57.6667 38.9333 57.6C38.6667 57.4 38.4667 57.1333 38.2 56.9333C38.0667 56.8 37.9333 56.6667 37.8 56.5333C37.6 56.3333 37.4 56.1333 37.2 55.8667C37.0667 55.7333 36.9333 55.6 36.8 55.4C36.6 55.2 36.4 54.9333 36.2667 54.7333C36.1333 54.6 36 54.4 35.8667 54.2667C35.6667 54.0667 35.5333 53.8 35.3333 53.6C35.2 53.4667 35.1333 53.2667 35 53.1333C34.8667 52.8667 34.6667 52.6667 34.5333 52.4C34.4667 52.2667 34.3333 52.0667 34.2667 51.9333C34.1333 51.6667 33.9333 51.4 33.8 51.0667C33.7333 50.9333 33.6667 50.8 33.6 50.6667C33.5333 50.5333 33.4667 50.4 33.4 50.3333H39.3333L39.2667 57.8667C39.2667 57.9333 39.3333 57.9333 39.2667 57.8667ZM23.6667 49C22.2667 46.4667 21.4667 43.6 21.3333 40.6667H29.6667C29.7333 43.5333 30.3333 46.3333 31.3333 49H23.6667ZM23.6667 31H31.3333C30.2667 33.6667 29.7333 36.4667 29.6667 39.3333H21.3333C21.4667 36.4 22.2667 33.5333 23.6667 31ZM40.7333 22.1333C40.8667 22.2 40.9333 22.3333 41.0667 22.4C41.3333 22.6 41.5333 22.8667 41.8 23.0667C41.9333 23.2 42.0667 23.3333 42.2 23.4667C42.4 23.6667 42.6 23.8667 42.8 24.1333C42.9333 24.2667 43.0667 24.4 43.2 24.6C43.4 24.8 43.6 25.0667 43.7333 25.2667C43.8667 25.4 44 25.6 44.1333 25.7333C44.3333 25.9333 44.4667 26.2 44.6667 26.4C44.8 26.5333 44.8667 26.7333 45 26.8667C45.1333 27.1333 45.3333 27.3333 45.4667 27.6C45.5333 27.7333 45.6667 27.9333 45.7333 28.0667C45.8667 28.3333 46.0667 28.6 46.2 28.9333C46.2667 29.0667 46.3333 29.2 46.4 29.3333C46.4667 29.4667 46.5333 29.6 46.6 29.6667H40.6667L40.7333 22.1333C40.7333 22.0667 40.6667 22.0667 40.7333 22.1333ZM31 39.3333C31.0667 36.4667 31.6667 33.6667 32.8 31H39.3333V39.3333H31ZM39.3333 49H32.8C31.6667 46.3333 31.0667 43.5333 31 40.6667H39.3333V49ZM40.6667 31H47.2C48.3333 33.6667 48.9333 36.4667 49 39.3333H40.6667V31ZM48.6667 31H56.3333C57.7333 33.5333 58.5333 36.4 58.6667 39.3333H50.3333C50.2667 36.4667 49.6667 33.6667 48.6667 31ZM55.5333 29.6667H48.0667C47.9333 29.3333 47.8 29 47.6 28.7333C47.5333 28.6 47.4667 28.4667 47.4 28.3333C47.2667 28.0667 47.0667 27.7333 46.9333 27.4667C46.8667 27.3333 46.7333 27.1333 46.6667 27C46.4667 26.7333 46.3333 26.4667 46.1333 26.2C46 26.0667 45.9333 25.8667 45.8 25.7333C45.6 25.4667 45.4 25.2 45.2 24.9333C45.0667 24.8 45 24.6667 44.8667 24.5333C44.6 24.2 44.3333 23.8667 44.0667 23.5333C44 23.4667 44 23.4 43.9333 23.3333C43.6 22.9333 43.2667 22.6 42.9333 22.2667C42.8 22.2 42.6667 22.0667 42.6 22C42.4 21.8 42.2 21.6667 42 21.4667C47.4667 22.0667 52.4667 25.0667 55.5333 29.6667ZM39.3333 22.0667V29.6667H33.4C34.8667 26.7333 36.8667 24.1333 39.3333 22.0667ZM38 21.4667C35.4 23.7333 33.3333 26.5333 31.9333 29.6667H24.4667C27.5333 25.0667 32.5333 22.0667 38 21.4667ZM24.4667 50.3333H31.9333C32.0667 50.6667 32.2 51 32.4 51.2667C32.4667 51.4 32.5333 51.5333 32.6 51.6667C32.7333 51.9333 32.9333 52.2667 33.0667 52.5333C33.1333 52.6667 33.2667 52.8667 33.3333 53C33.5333 53.2667 33.6667 53.5333 33.8667 53.8C34 53.9333 34.0667 54.1333 34.2 54.2667C34.4 54.5333 34.6 54.8 34.8 55.0667C34.9333 55.2 35 55.3333 35.1333 55.4667C35.4 55.8 35.6667 56.1333 35.9333 56.4C36 56.4667 36 56.5333 36.0667 56.6C36.4 56.9333 36.7333 57.3333 37.0667 57.6667C37.2 57.8 37.2667 57.8667 37.4 58C37.6 58.2 37.8 58.3333 38 58.5333C32.5333 57.9333 27.5333 54.9333 24.4667 50.3333Z" fill="white"/>
<path d="M47.9999 46.0001H49.3333C49.7333 46.0001 49.9999 45.7334 49.9999 45.3334C49.9999 44.9334 49.7333 44.6667 49.3333 44.6667H47.9999C47.5999 44.6667 47.3333 44.9334 47.3333 45.3334C47.3333 45.7334 47.5999 46.0001 47.9999 46.0001Z" fill="white"/>
</svg>
