<svg id="Capa_1" enable-background="new 0 0 512 512" height="512" viewBox="0 0 512 512" width="512" xmlns="http://www.w3.org/2000/svg"><g><path d="m383.278 43.868c-23.393 23.394-23.393 61.458 0 84.853 23.394 23.394 61.459 23.395 84.854 0 23.447-23.448 23.451-61.402 0-84.853-23.394-23.395-61.459-23.393-84.854 0zm56.57 56.569c-7.797 7.797-20.485 7.799-28.284 0-7.798-7.798-7.798-20.487 0-28.285 7.797-7.798 20.486-7.799 28.285 0 7.814 7.814 7.817 20.467-.001 28.285z"/><path d="m477.203 170.455c-10.618 3.046-16.755 14.123-13.709 24.74 5.645 19.669 8.506 40.127 8.506 60.805 0 121.122-94.879 216-216 216-121.122 0-216-94.878-216-216s94.878-216 216-216c20.678 0 41.136 2.862 60.805 8.505 10.623 3.049 21.695-3.09 24.741-13.708 3.046-10.617-3.091-21.694-13.708-24.74-23.258-6.673-47.427-10.057-71.838-10.057-143.551 0-256 112.449-256 256s112.449 256 256 256c143.552 0 256-112.449 256-256 0-24.41-3.384-48.58-10.057-71.837-3.047-10.618-14.123-16.756-24.74-13.708z"/><path d="m354.995 185.289c7.811-7.811 7.81-20.474-.001-28.284-7.811-7.811-20.474-7.811-28.284 0l-15.597 15.597c-10.493-6.957-22.364-11.993-35.113-14.591v-22.011c0-11.046-8.954-20-20-20s-20 8.954-20 20v22.011c-12.749 2.598-24.621 7.634-35.114 14.591l-15.597-15.597c-7.811-7.811-20.474-7.811-28.284 0s-7.811 20.474 0 28.284l15.597 15.597c-6.957 10.493-11.993 22.364-14.591 35.114h-22.011c-11.046 0-20 8.954-20 20s8.954 20 20 20h22.011c2.598 12.75 7.634 24.621 14.591 35.114l-15.597 15.597c-7.811 7.811-7.811 20.474 0 28.284 7.81 7.81 20.473 7.811 28.284 0l15.597-15.597c10.493 6.957 22.364 11.993 35.114 14.591v22.011c0 11.046 8.954 20 20 20s20-8.954 20-20v-22.011c12.749-2.598 24.621-7.634 35.113-14.591l15.597 15.597c7.81 7.81 20.474 7.812 28.284 0 7.811-7.81 7.812-20.474.001-28.284l-15.597-15.597c6.957-10.493 11.993-22.365 14.591-35.114h22.011c11.046 0 20-8.954 20-20s-8.954-20-20-20h-22.011c-2.598-12.749-7.634-24.621-14.591-35.114zm-98.995 130.711c-33.083 0-60-26.924-60-60 0-33.083 26.924-60 60-60 33.08 0 60 26.921 60 60 0 33.08-26.921 60-60 60z"/></g></svg>