<svg width="80" height="80" viewBox="0 0 80 80" fill="none" xmlns="http://www.w3.org/2000/svg">
<circle cx="40" cy="40" r="40" fill="#E045E6"/>
<path d="M57.3158 29.2887H46.5558V26.35C46.5558 24.5026 45.0603 23 43.2223 23H36.7777C34.94 23 33.4445 24.5026 33.4445 26.35V29.2887H22.6842C21.2132 29.2887 20 30.5342 20 32.0052V40.6629C20 40.9484 20.18 41.2023 20.4484 41.2958L21.6935 41.73L21.6668 55.1219C21.6668 56.62 22.871 57.8384 24.351 57.8384H55.649C57.129 57.8384 58.3332 56.6197 58.3332 55.1219V41.7242L59.5532 41.2955C59.8206 41.2016 60 40.9477 60 40.6632V32.0052C60 30.5342 58.7868 29.2887 57.3158 29.2887ZM34.7777 26.35C34.7777 25.2416 35.6748 24.34 36.7777 24.34H43.2223C44.3252 24.34 45.2223 25.2416 45.2223 26.35V29.2887H34.7777V26.35ZM57 55.1223C57 55.8813 56.3939 56.4987 55.649 56.4987H24.351C23.6061 56.4987 23 55.8813 23 55.1235L23.0258 42.1952L36.5352 46.9065V48.6406C36.5352 49.0106 36.8335 49.3106 37.2019 49.3106H42.9458C43.3139 49.3106 43.6126 49.0106 43.6126 48.6406V46.899L57 42.1929V55.1223ZM37.8684 47.9703V44.3042H42.2787V47.9703H37.8684ZM58.6668 40.1874L43.6123 45.4794V43.6342C43.6123 43.2642 43.3139 42.9642 42.9455 42.9642H37.2019C36.8339 42.9642 36.5352 43.2642 36.5352 43.6342V45.4877L21.3332 40.1865V32.0052C21.3332 31.2635 21.9403 30.6287 22.6842 30.6287H57.3158C58.06 30.6287 58.6668 31.2626 58.6668 32.0052V40.1874Z" fill="white"/>
<circle cx="40" cy="40" r="34" fill="white" fill-opacity="0.11"/>
</svg>
