<svg height="472pt" viewBox="-43 0 472 472.1116" width="472pt" xmlns="http://www.w3.org/2000/svg"><path d="m293.355469 300.46875-93.230469-176.144531c-1.382812-2.621094-4.105469-4.261719-7.070312-4.261719-2.960938 0-5.683594 1.640625-7.070313 4.261719l-93.230469 176.144531c-.953125 1.773438-1.183594 3.847656-.636718 5.785156l26 93.859375h-8.921876c-4.417968 0-8 3.578125-8 8 0 4.417969 3.582032 8 8 8h13.339844l13.820313 50.042969c.949219 3.484375 4.097656 5.917969 7.710937 5.957031h101.136719c3.667969-.039062 6.851563-2.546875 7.75-6.101562l12.800781-49.898438h11.160156c4.421876 0 8-3.582031 8-8 0-4.421875-3.578124-8-8-8h-7.050781l24.175781-94c.492188-1.902343.25-3.917969-.683593-5.644531zm-100.300781-32.296875c7.800781 0 14.125 6.324219 14.125 14.125-.003907 7.800781-6.324219 14.121094-14.125 14.121094-7.800782 0-14.121094-6.324219-14.121094-14.121094.007812-7.796875 6.324218-14.117187 14.121094-14.125zm45.945312 187.941406h-88.84375l-11.019531-40h110.101562zm14.34375-56h-118.636719l-26.328125-95.058593 76.675782-144.773438v92.976562c-14.535157 4.003907-23.871094 18.136719-21.851563 33.078126 2.019531 14.941406 14.777344 26.089843 29.851563 26.089843 15.078124 0 27.832031-11.148437 29.851562-26.089843 2.023438-14.941407-7.316406-29.074219-21.851562-33.078126v-92.976562l76.714843 144.847656zm0 0"/><path d="m8.28125 234.113281h59.925781c2.074219.0625 4.085938-.726562 5.566407-2.179687 1.480468-1.453125 2.304687-3.445313 2.28125-5.523438v-59.921875c0-4.417969-3.425782-8.375-7.847657-8.375h-16.820312c13.429687-50.113281 52.394531-89.363281 102.40625-103.15625 5.71875 16.820313 21.515625 28.128907 39.28125 28.117188s33.546875-11.335938 39.246093-28.164063c50.027344 13.792969 89 53.066406 102.402344 103.203125h-16.820312c-4.417969 0-7.847656 3.957031-7.847656 8.375v59.921875c-.023438 2.078125.800781 4.070313 2.28125 5.523438 1.484374 1.453125 3.492187 2.242187 5.566406 2.179687h59.925781c2.113281.074219 4.171875-.695312 5.714844-2.140625 1.542969-1.445312 2.449219-3.445312 2.511719-5.5625v-59.921875c-.074219-4.539062-3.691407-8.21875-8.226563-8.375h-26.621094c-13.96875-58.1875-58.816406-103.96875-116.699219-119.136719-1.347656-21.894531-19.492187-38.9648432-41.429687-38.976562-21.933594-.0117188-40.097656 17.035156-41.472656 38.929688-57.875 15.210937-102.710938 61-116.707031 119.183593h-26.617188c-4.53125.15625-8.148438 3.835938-8.2265625 8.375v59.921875c.0664065 2.117188.9687505 4.117188 2.5156245 5.5625 1.542969 1.445313 3.597657 2.214844 5.710938 2.140625zm361.773438-16h-44v-44h44zm-177-202c14.101562 0 25.53125 11.429688 25.53125 25.527344s-11.429688 25.527344-25.53125 25.527344c-14.097657 0-25.527344-11.429688-25.527344-25.527344.015625-14.09375 11.4375-25.511719 25.527344-25.527344zm-177 158h44v44h-44zm0 0"/></svg>