<svg height="470pt" viewBox="-8 0 470 470.33152" width="470pt" xmlns="http://www.w3.org/2000/svg"><path d="m104.238281 271.195312c10.550781 31.378907 32.671875 57.550782 61.851563 73.1875v83.695313c-.011719 11.238281 4.453125 22.015625 12.414062 29.949219 7.960938 7.929687 18.757813 12.359375 29.996094 12.304687h37.183594c11.234375.054688 22.03125-4.375 29.992187-12.304687 7.960938-7.933594 12.429688-18.710938 12.414063-29.949219v-83.71875c23.765625-12.558594 42.972656-32.285156 54.902344-56.375 31.914062-63.953125 5.890624-141.949219-58.0625-173.863281-46.902344-23.414063-103.292969-16.257813-142.855469 18.132812s-54.496094 89.238282-37.835938 138.941406zm122.851563 14.265626c-22.503906 0-40.746094-18.246094-40.746094-40.75 0-22.503907 18.242188-40.746094 40.746094-40.746094s40.75 18.242187 40.75 40.746094c-.027344 22.496093-18.253906 40.722656-40.75 40.75zm0 16c4.035156-.003907 8.058594-.433594 12-1.289063v67.160156h-24v-67.160156c3.945312.855469 7.964844 1.285156 12 1.289063zm45 81.871093v26h-90v-26zm-26.40625 71h-37.183594c-6.996094.058594-13.722656-2.683593-18.6875-7.613281-4.960938-4.933594-7.742188-11.644531-7.722656-18.640625v-2.746094h90v2.746094c.019531 6.996094-2.761719 13.707031-7.722656 18.640625-4.960938 4.929688-11.691407 7.671875-18.683594 7.613281zm-120.261719-274.960937c22.082031-44.253906 70.257813-69.144532 119.128906-61.542969 48.875 7.597656 87.214844 45.941406 94.816407 94.816406 7.601562 48.871094-17.289063 97.046875-61.546876 119.128907-.1875.09375-.449218.199218-.628906.304687-3.050781 1.207031-5.066406 4.140625-5.105468 7.417969v27.835937h-16.996094v-73.292969c22.410156-12.710937 33.445312-38.925781 26.871094-63.835937-6.574219-24.914063-29.105469-42.269531-54.871094-42.269531s-48.296875 17.355468-54.867188 42.269531c-6.574218 24.910156 4.457032 51.125 26.867188 63.835937v73.292969h-17v-27.832031c-.035156-3.28125-2.054688-6.214844-5.105469-7.421875-.175781-.105469-.398437-.210937-.585937-.304687-56.15625-28.007813-78.976563-96.238282-50.976563-152.398438zm0 0"/><path d="m227.089844 63.519531c4.417968 0 8-3.582031 8-8v-47.519531c0-4.417969-3.582032-8-8-8-4.417969 0-8 3.582031-8 8v47.519531c0 4.417969 3.582031 8 8 8zm0 0"/><path d="m399.0625 235.332031h46.953125c4.417969 0 8-3.582031 8-8s-3.582031-8-8-8h-46.953125c-4.417969 0-8 3.582031-8 8s3.582031 8 8 8zm0 0"/><path d="m8.164062 235.332031h46.953126c4.417968 0 8-3.582031 8-8s-3.582032-8-8-8h-46.953126c-4.417968 0-8 3.582031-8 8s3.582032 8 8 8zm0 0"/><path d="m347.019531 112.730469c2.121094.003906 4.160157-.839844 5.65625-2.34375l32.816407-32.804688c3.121093-3.125 3.121093-8.191406 0-11.316406-3.125-3.121094-8.191407-3.121094-11.316407 0l-32.808593 32.8125c-2.289063 2.289063-2.972657 5.730469-1.734376 8.71875 1.238282 2.988281 4.15625 4.9375 7.390626 4.9375zm0 0"/><path d="m101.503906 110.390625c2.019532 2.042969 4.972656 2.847656 7.746094 2.109375s4.941406-2.902344 5.675781-5.675781c.738281-2.773438-.066406-5.730469-2.105469-7.746094l-32.8125-32.8125c-3.125-3.125-8.191406-3.125-11.316406 0s-3.125 8.191406 0 11.316406zm0 0"/></svg>