<svg width="306" height="306" viewBox="0 0 306 306" fill="none" xmlns="http://www.w3.org/2000/svg">
<g clip-path="url(#clip0_314:160)">
<path d="M152.502 0.000976562C68.412 0.000976562 0 68.412 0 152.501C0 236.59 68.412 305.001 152.502 305.001C236.591 305.001 305.002 236.59 305.002 152.501C305.002 68.412 236.591 0.000976562 152.502 0.000976562ZM152.502 280.001C82.197 280.001 25 222.806 25 152.501C25 82.197 82.197 25.001 152.502 25.001C222.806 25.001 280.002 82.197 280.002 152.501C280.002 222.806 222.806 280.001 152.502 280.001Z" fill="white"/>
<path d="M218.473 93.9702L127.927 184.517L86.5289 143.119C81.6469 138.238 73.7329 138.238 68.8509 143.119C63.9699 148.001 63.9699 155.915 68.8509 160.797L119.088 211.034C121.529 213.474 124.728 214.695 127.927 214.695C131.126 214.695 134.325 213.474 136.766 211.034L236.151 111.649C241.032 106.767 241.032 98.8532 236.151 93.9712C231.269 89.0892 223.354 89.0892 218.473 93.9702Z" fill="white"/>
</g>
<defs>
<clipPath id="clip0_314:160">
<rect width="305.002" height="305.002" fill="white"/>
</clipPath>
</defs>
</svg>
